# xmcd CD Database Entry
#
# Track frame offsets:
# 150
# 69187
# 104390
# 150847
#
# Disc length: 3245 seconds
#
# Revision: 1
# Processed by: cddbd v1.5.2PL0 Copyright (c) Steve Scherf et al.
# Submitted via: tcd 2.0b
#
DISCID=210cab04
DTITLE=Mahler, Gustav / Symphony No. 1 "The Titan"
DYEAR=
DGENRE=
TTITLE0=Langsam, schleppend / Im Anfang serh gemachlich, naturlaut
TTITLE1=Kraftig bewegt, doch nicht ze schnell
TTITLE2=Feierlich und gemessen, nicht schleppend
TTITLE3=Sturmisch bewegt
EXTD=
EXTT0=
EXTT1=
EXTT2=
EXTT3=
PLAYORDER=
.
